<?xml version="1.0" encoding="UTF-8" standalone="no"?>
<svg width="162px" height="85px" viewBox="0 0 162 85" version="1.1" xmlns="http://www.w3.org/2000/svg" xmlns:xlink="http://www.w3.org/1999/xlink" xmlns:sketch="http://www.bohemiancoding.com/sketch/ns">
    <!-- Generator: Sketch 3.3.3 (12072) - http://www.bohemiancoding.com/sketch -->
    <title>Logo</title>
    <desc>Created with Sketch.</desc>
    <defs></defs>
    <g id="Page-1" stroke="none" stroke-width="1" fill="none" fill-rule="evenodd" sketch:type="MSPage">
        <g id="Chair-Logo" sketch:type="MSArtboardGroup" transform="translate(-19.000000, -58.000000)">
            <g id="Logo" sketch:type="MSLayerGroup" transform="translate(19.000000, 61.000000)">
                <path d="M0.588878599,68.3201167 L1.69604429,71.0649822 L11.0398816,71.0649822 L23.9118646,65.0435626 C23.9118646,65.0435626 32.6729552,59.6099649 36.6010202,56.473849 C37.9180269,55.422368 44.6505869,48.7717698 44.6505869,48.7717698 L52.303377,40.3692143 L61.2574519,30.0057671 L66.6289423,20.6937464 L69.5059946,13.228689 L69.5059946,11.1001008 L66.7329234,8.7013881 L63.2574519,10.3851267 C63.2574519,10.3851267 56.5148735,19.8564622 56.5148753,19.8564618 C56.514877,19.8564614 45.6505869,32.8165117 45.6505869,32.8165117 L36.8299616,41.7291838 L27.1498922,50.0874965 L15.7087053,58.2473438 L0.588878599,68.3201167 Z" id="Mountain-Left" fill="#FFFFFF" sketch:type="MSShapeGroup"></path>
                <path d="M74.64486,8.93501784 L73.1141667,9.93501784 L73.1141667,16.4595144 L74.3637888,20.1876963 L78.8815436,24.7871128 L83.4462933,28.9414078 L88.2577261,31.3283268 C88.2577261,31.3283268 92.6146845,33.529455 92.8224377,33.5861851 C95.1130965,34.211683 99.3622932,33.8561512 99.3622932,33.8561512 L107.290118,33.5861843 L109.376388,31.8212358 L111.835707,30.4838834 L114.857019,30.1233332 L114.694397,28.1362058 L110.749047,27.0930709 L103.11009,25.9308225 L96.2093512,24.304602 L91.1449038,21.9847584 L87.3464834,19.5386857 L82.523082,15.6325638 L79.1942886,10.9350178 L74.64486,8.93501784 Z" id="Mountain-Center" fill="#FFFFFF" sketch:type="MSShapeGroup"></path>
                <path d="M110.942703,34.3989311 L111.942703,42.2783708 L115.30168,50.7672062 L119.32724,56.2817058 L125.102542,62.4128132 L134.865641,66.8227176 L141.206121,69.1914865 L147.193104,71.4371052 L152.78315,71.4371052 L156.876925,69.0489979 L160.534855,67.8227176 L161.411121,65.5609302 L152.69862,63.8330917 L148.006658,62.497705 L141.632338,59.6233597 L134.865641,56.2817058 L129.514612,52.4750004 L125.20312,47.2866297 L121.679722,39.8371587 L119.884396,36.0420402 L116.066572,33.1514579 L113.033815,33.1514579 L110.942703,34.3989311 Z" id="Mountain-Right" fill="#FFFFFF" sketch:type="MSShapeGroup"></path>
                <rect id="Rectangle-1" stroke="#FFFFFF" stroke-width="6" sketch:type="MSShapeGroup" x="37" y="0" width="88" height="79"></rect>
            </g>
        </g>
    </g>
</svg>