<?xml version="1.0" encoding="UTF-8" standalone="no"?>
<svg width="255px" height="142px" viewBox="0 0 255 142" version="1.1" xmlns="http://www.w3.org/2000/svg" xmlns:xlink="http://www.w3.org/1999/xlink" xmlns:sketch="http://www.bohemiancoding.com/sketch/ns">
    <!-- Generator: Sketch 3.3.3 (12072) - http://www.bohemiancoding.com/sketch -->
    <title>mendeley</title>
    <desc>Created with Sketch.</desc>
    <defs></defs>
    <g id="Page-1" stroke="none" stroke-width="1" fill="none" fill-rule="evenodd" sketch:type="MSPage">
        <g id="Artboard-1" sketch:type="MSArtboardGroup" transform="translate(-23.000000, -79.000000)" fill="#FFFFFF">
            <g id="mendeley" sketch:type="MSLayerGroup" transform="translate(23.000000, 79.000000)">
                <path d="M116.549434,28.7850847 C123.419519,34.9849492 131.90717,34.8501695 138.777736,28.5155254 C142.818764,24.7416949 146.726038,20.5635254 149.958764,16.1157966 C159.658387,2.90738983 175.554991,-2.61857627 191.047443,2.36827119 C206.674613,7.35511864 216.913104,20.8330847 216.508953,37.2762034 C216.374236,44.1499661 214.218764,51.0237288 213.410462,58.0327525 C212.737358,63.8277966 212.198009,69.6238034 212.333208,75.4188475 C212.737358,86.7408203 219.069057,92.1320068 230.385283,91.8619661 C242.913962,91.5924068 251.670566,98.4661695 254.095472,110.596339 C257.328679,126.500339 247.224906,140.787464 232.001887,141.86522 C215.027547,143.078719 202.498868,126.365559 207.75283,109.787661 C208.561613,107.361627 209.638868,105.204671 210.312453,102.778637 C213.141509,93.883661 210.312453,86.2012203 202.498868,81.0791119 C195.089915,76.3623051 186.872179,74.8797288 178.250292,75.0140271 C171.244528,75.1488068 164.508679,76.4966034 158.446896,80.0008746 C149.016226,85.5263593 146.322368,94.6918576 151.441132,104.395993 C160.332453,121.513492 148.746792,140.786983 129.482264,141.32562 C122.342264,141.595661 115.740651,140.382163 109.947821,135.800136 C100.517632,128.387254 97.5538585,115.717966 103.077736,105.070373 C108.870566,93.6141017 105.636877,83.7751864 93.9169811,78.6535593 C80.9841509,73.1275932 67.9166038,73.2623729 55.2532075,79.1921966 C44.2064151,84.4486034 40.8384906,94.0184407 45.5535849,105.339451 C47.9784906,111.000197 49.0562264,116.795722 47.7090566,122.726027 C45.149434,134.451858 34.6415094,142.403858 22.9211321,141.59518 C11.0660377,140.786502 1.50113208,131.351925 0.288679245,119.221756 C-1.46264151,102.374298 8.50641509,91.3223661 25.3460377,91.5924068 C35.4498113,91.7267051 41.3773585,86.4707797 42.4550943,76.3623051 C42.7245283,73.6662305 42.7245283,70.9706373 42.8592453,68.1407458 C42.9939623,68.1407458 43.1286792,68.0054847 43.2633962,68.0054847 C41.9162264,61.2665017 40.8384906,54.5275186 39.2218868,47.7885356 C33.1596226,22.584739 51.0769811,-0.462583051 76.2690566,0.346094915 C88.2583868,0.750433898 97.5543396,6.14162034 104.829057,15.5761966 L116.549434,28.7850847 Z M152.384151,66.5233898 C152.384151,52.3715254 141.472075,41.3195932 127.461509,41.3195932 C113.58566,41.3195932 102.404151,52.3715254 102.404151,66.1190508 C102.404151,79.8670576 113.58566,91.0537695 127.326792,91.1885492 C141.067925,91.3228475 152.249434,80.2709153 152.384151,66.5233898 L152.384151,66.5233898 Z" id="Shape" sketch:type="MSShapeGroup"></path>
            </g>
        </g>
    </g>
</svg>